PathFileType	4	(X/Y/Z)	RBDS06static.trc
DataRate	CameraRate	NumFrames	NumMarkers	Units	OrigDataRate	OrigDataStartFrame	OrigNumFrames
150.000000	150.000000	4	48	mm	150.000000	112	150
Frame#	Time	L.Ankle			L.Ankle.Medial			L.ASIS			L.GTR			L.Heel.Bottom			L.Heel.Lateral			L.Heel.Top			L.HF			L.Iliac.Crest			L.Knee			L.Knee.Medial			L.MT1			L.MT2			L.MT5			L.PSIS			L.Shank.Bottom.Lateral			L.Shank.Bottom.Medial			L.Shank.Top.Lateral			L.Shank.Top.Medial			L.Thigh.Bottom.Lateral			L.Thigh.Bottom.Medial			L.Thigh.Top.Lateral			L.Thigh.Top.Medial			L.TT			R.Ankle			R.Ankle.Medial			R.ASIS			R.GTR			R.Heel.Bottom			R.Heel.Lateral			R.Heel.Top			R.HF			R.Iliac.Crest			R.Knee			R.Knee.Medial			R.MT1			R.MT2			R.MT5			R.PSIS			R.Shank.Bottom.Lateral			R.Shank.Bottom.Medial			R.Shank.Top.Lateral			R.Shank.Top.Medial			R.Thigh.Bottom.Lateral			R.Thigh.Bottom.Medial			R.Thigh.Top.Lateral			R.Thigh.Top.Medial			R.TT			
		X1	Y1	Z1	X2	Y2	Z2	X3	Y3	Z3	X4	Y4	Z4	X5	Y5	Z5	X6	Y6	Z6	X7	Y7	Z7	X8	Y8	Z8	X9	Y9	Z9	X10	Y10	Z10	X11	Y11	Z11	X12	Y12	Z12	X13	Y13	Z13	X14	Y14	Z14	X15	Y15	Z15	X16	Y16	Z16	X17	Y17	Z17	X18	Y18	Z18	X19	Y19	Z19	X20	Y20	Z20	X21	Y21	Z21	X22	Y22	Z22	X23	Y23	Z23	X24	Y24	Z24	X25	Y25	Z25	X26	Y26	Z26	X27	Y27	Z27	X28	Y28	Z28	X29	Y29	Z29	X30	Y30	Z30	X31	Y31	Z31	X32	Y32	Z32	X33	Y33	Z33	X34	Y34	Z34	X35	Y35	Z35	X36	Y36	Z36	X37	Y37	Z37	X38	Y38	Z38	X39	Y39	Z39	X40	Y40	Z40	X41	Y41	Z41	X42	Y42	Z42	X43	Y43	Z43	X44	Y44	Z44	X45	Y45	Z45	X46	Y46	Z46	X47	Y47	Z47	X48	Y48	Z48	

113	0.7466666666666667	708.8984985351563	108.86767578125	1042.833251953125	730.2889404296875	121.1080017089844	1128.567626953125	857.0457763671875	1036.460327148438	1105.66943359375	767.6583251953125	948.5806274414063	1049.1455078125	638.1060180664063	43.25490951538086	1078.488891601563	672.6590576171875	64.82041168212891	1038.630249023438	649.565185546875	93.16838836669922	1082.031372070313	719.408447265625	487.1353759765625	1038.816528320313	766.5780639648438	1106.580200195313	1066.351440429688	726.1343383789063	558.1185302734375	1042.868774414063	718.4835815429688	535.7258911132813	1174.926025390625	864.6927490234375	63.74863052368164	1122.54931640625	878.8981323242188	65.15985107421875	1077.663696289063	831.7652587890625	49.58100128173828	1012.365661621094	688.0374755859375	1074.927124023438	1177.676635742188	700.0549926757813	194.259033203125	1038.561645507813	660.9633178710938	192.5884246826172	1076.350708007813	690.0142211914063	273.5240783691406	1030.842163085938	652.7366943359375	273.3424682617188	1069.615356445313	729.8841552734375	640.5245361328125	1033.2509765625	672.4365234375	635.9624633789063	1078.108276367188	716.3646850585938	750.3943481445313	1032.955688476563	667.0679931640625	746.4608154296875	1080.5029296875	778.0786743164063	456.595947265625	1092.347290039063	700.8866577148438	115.8035736083984	1412.66796875	724.06396484375	122.6072311401367	1324.957153320313	857.1112670898438	1036.254272460938	1341.192504882813	778.4119262695313	940.4951782226563	1392.867309570313	631.760498046875	42.60638809204102	1368.826904296875	661.0859375	65.50650024414063	1410.477661132813	641.4839477539063	92.01557159423828	1367.539428710938	723.189208984375	491.466552734375	1402.9208984375	787.5069580078125	1094.215454101563	1386.138549804688	732.0630493164063	550.8937377929688	1399.557861328125	730.9528198242188	533.8783569335938	1270.27880859375	857.4637451171875	66.24533843994141	1331.508911132813	859.7568359375	72.26349639892578	1370.779174804688	819.320068359375	49.1973876953125	1443.632934570313	691.2744750976563	1073.0888671875	1275.39697265625	685.60693359375	206.9812316894531	1412.733764648438	651.0413208007813	207.3582458496094	1374.510498046875	677.9886474609375	291.4689636230469	1417.342651367188	643.2308349609375	287.7320556640625	1376.739868164063	746.4784545898438	647.286865234375	1413.611083984375	681.851318359375	650.3638916015625	1377.207153320313	745.0015258789063	758.0430908203125	1420.267700195313	685.4181518554688	760.60693359375	1382.3486328125	777.5703735351563	457.5081481933594	1356.5576171875	
114	0.7533333333333334	708.9063720703125	108.8745574951172	1042.833129882813	730.297607421875	121.0871200561523	1128.572021484375	857.0663452148438	1036.447998046875	1105.649536132813	767.678955078125	948.5814208984375	1049.132080078125	638.1010131835938	43.26516342163086	1078.487548828125	672.6571044921875	64.83169555664063	1038.621826171875	649.55810546875	93.17639923095703	1082.036499023438	719.4149169921875	487.1327819824219	1038.821044921875	766.5785522460938	1106.574829101563	1066.346923828125	726.1513671875	558.1202392578125	1042.860473632813	718.5012817382813	535.7179565429688	1174.921508789063	864.693603515625	63.73805999755859	1122.552978515625	878.9024658203125	65.15476989746094	1077.659423828125	831.7607421875	49.57367706298828	1012.366271972656	688.0747680664063	1074.918823242188	1177.6650390625	700.0526733398438	194.2583770751953	1038.563232421875	660.9659423828125	192.598388671875	1076.350952148438	689.9873657226563	273.5796508789063	1030.84423828125	652.739013671875	273.349609375	1069.6123046875	729.8955688476563	640.5198974609375	1033.24853515625	672.44384765625	635.964599609375	1078.1044921875	716.37744140625	750.401123046875	1032.93798828125	667.0831909179688	746.4597778320313	1080.493774414063	778.079345703125	456.5933227539063	1092.3544921875	700.892333984375	115.8222579956055	1412.650268554688	724.0693359375	122.5936431884766	1324.957153320313	857.1407470703125	1036.255126953125	1341.178344726563	778.4332885742188	940.4807739257813	1392.855590820313	631.7660522460938	42.60645294189453	1368.82421875	661.0925903320313	65.50709533691406	1410.480590820313	641.4846801757813	92.01335144042969	1367.535766601563	723.1880493164063	491.4693908691406	1402.915649414063	787.5231323242188	1094.201904296875	1386.113647460938	732.0808715820313	550.9002075195313	1399.564453125	730.9799194335938	533.865966796875	1270.287353515625	857.462890625	66.24299621582031	1331.508911132813	859.7633056640625	72.26470184326172	1370.77880859375	819.3265991210938	49.19088363647461	1443.635986328125	691.2982788085938	1073.0869140625	1275.39404296875	685.6193237304688	206.9893646240234	1412.724731445313	651.044677734375	207.3546905517578	1374.509033203125	678.0045776367188	291.4727172851563	1417.334838867188	643.2434692382813	287.7299194335938	1376.738159179688	746.4891967773438	647.2898559570313	1413.603393554688	681.86279296875	650.3612060546875	1377.205200195313	745.0117797851563	758.04736328125	1420.262084960938	685.4378051757813	760.6136474609375	1382.339721679688	777.569580078125	457.5120849609375	1356.562377929688	
115	0.76	708.893798828125	108.8830032348633	1042.829711914063	730.2914428710938	121.0984802246094	1128.568237304688	857.0828857421875	1036.453125	1105.654541015625	767.6995849609375	948.57958984375	1049.11474609375	638.09423828125	43.26880645751953	1078.48779296875	672.6508178710938	64.83056640625	1038.633422851563	649.5529174804688	93.18502807617188	1082.031494140625	719.4212646484375	487.1429748535156	1038.812622070313	766.6035766601563	1106.574829101563	1066.350463867188	726.1550903320313	558.1168823242188	1042.854614257813	718.5055541992188	535.7308349609375	1174.927490234375	864.6947021484375	63.74763488769531	1122.553466796875	878.8950805664063	65.16099548339844	1077.659545898438	831.753662109375	49.57859802246094	1012.365295410156	688.0906372070313	1074.928588867188	1177.667846679688	700.052490234375	194.2613525390625	1038.55224609375	660.9660034179688	192.6010589599609	1076.356323242188	690.0231323242188	273.5208435058594	1030.840454101563	652.740478515625	273.3568420410156	1069.603881835938	729.9071655273438	640.5237426757813	1033.246215820313	672.4691772460938	635.9666748046875	1078.094360351563	716.3961791992188	750.3890991210938	1032.943481445313	667.0968017578125	746.4630126953125	1080.503295898438	778.0906982421875	456.5894165039063	1092.34521484375	700.8839111328125	115.8212585449219	1412.671508789063	724.0588989257813	122.6100234985352	1324.951416015625	857.1522216796875	1036.25244140625	1341.174560546875	778.4430541992188	940.492919921875	1392.85302734375	631.759765625	42.61316299438477	1368.82666015625	661.08837890625	65.51223754882813	1410.485595703125	641.4857177734375	92.01506042480469	1367.551147460938	723.2101440429688	491.4830322265625	1402.918090820313	787.5292358398438	1094.1943359375	1386.1220703125	732.0778198242188	550.9002685546875	1399.545288085938	730.989013671875	533.8663330078125	1270.2890625	857.4589233398438	66.24374389648438	1331.509643554688	859.7650756835938	72.26448822021484	1370.781616210938	819.31396484375	49.19729614257813	1443.6376953125	691.3216552734375	1073.091918945313	1275.387329101563	685.6112670898438	206.9949035644531	1412.723999023438	651.047607421875	207.3574523925781	1374.508178710938	678.0039672851563	291.4744873046875	1417.34130859375	643.2429809570313	287.7299194335938	1376.73974609375	746.5001220703125	647.2929077148438	1413.607421875	681.8707885742188	650.3629760742188	1377.19970703125	745.02099609375	758.0411376953125	1420.247436523438	685.4531860351563	760.614990234375	1382.3271484375	777.5825805664063	457.5061340332031	1356.554565429688	
116	0.7666666666666667	708.8902587890625	108.8838043212891	1042.836547851563	730.2928466796875	121.0892868041992	1128.571655273438	857.1004638671875	1036.448364257813	1105.647583007813	767.7133178710938	948.5811767578125	1049.11669921875	638.0962524414063	43.26446533203125	1078.494018554688	672.650146484375	64.82804870605469	1038.637329101563	649.5585327148438	93.17993927001953	1082.038452148438	719.423583984375	487.1390686035156	1038.79931640625	766.6189575195313	1106.578979492188	1066.34814453125	726.1609497070313	558.1189575195313	1042.859619140625	718.50927734375	535.7403564453125	1174.9140625	864.692138671875	63.74227523803711	1122.5595703125	878.8972778320313	65.15965270996094	1077.668823242188	831.7503051757813	49.58254241943359	1012.367797851563	688.1122436523438	1074.931030273438	1177.657104492188	700.060302734375	194.2635650634766	1038.565307617188	660.9683837890625	192.6055755615234	1076.351684570313	690.0280151367188	273.5224304199219	1030.842529296875	652.7481689453125	273.3546752929688	1069.608276367188	729.9149780273438	640.5181884765625	1033.237426757813	672.4725341796875	635.9751586914063	1078.086181640625	716.408447265625	750.3917846679688	1032.932739257813	667.106201171875	746.4654541015625	1080.490600585938	778.0921630859375	456.595703125	1092.359130859375	700.88330078125	115.8317718505859	1412.681762695313	724.0631713867188	122.602409362793	1324.94970703125	857.1701049804688	1036.25146484375	1341.16845703125	778.4613037109375	940.4989624023438	1392.845458984375	631.7591552734375	42.6151237487793	1368.829956054688	661.0875244140625	65.50703430175781	1410.481079101563	641.4856567382813	92.01467132568359	1367.548706054688	723.211181640625	491.4720153808594	1402.913696289063	787.5439453125	1094.179077148438	1386.1171875	732.0914916992188	550.9175415039063	1399.530517578125	731.0016479492188	533.8690185546875	1270.279663085938	857.4600830078125	66.24201202392578	1331.507568359375	859.7622680664063	72.25698089599609	1370.791381835938	819.3223876953125	49.18986511230469	1443.625366210938	691.3452758789063	1073.097290039063	1275.376220703125	685.615478515625	206.9913482666016	1412.717529296875	651.0512084960938	207.3649139404297	1374.495483398438	678.0093383789063	291.4752502441406	1417.3408203125	643.2443237304688	287.7344665527344	1376.735107421875	746.509033203125	647.289794921875	1413.607543945313	681.8802490234375	650.36474609375	1377.203247070313	745.0364379882813	758.041259765625	1420.252319335938	685.4646606445313	760.6210327148438	1382.33056640625	777.5891723632813	457.5036926269531	1356.5498046875	
